<svg width="83" height="21" viewBox="0 0 83 21" fill="none" xmlns="http://www.w3.org/2000/svg">
<path d="M14.3984 5.82031H10.9766C10.9141 5.3776 10.7865 4.98437 10.5938 4.64062C10.401 4.29167 10.1536 3.99479 9.85156 3.75C9.54948 3.50521 9.20052 3.31771 8.80469 3.1875C8.41406 3.05729 7.98958 2.99219 7.53125 2.99219C6.70313 2.99219 5.98177 3.19792 5.36719 3.60937C4.7526 4.01562 4.27604 4.60937 3.9375 5.39062C3.59896 6.16667 3.42969 7.10937 3.42969 8.21875C3.42969 9.35937 3.59896 10.3177 3.9375 11.0937C4.28125 11.8698 4.76042 12.4557 5.375 12.8516C5.98958 13.2474 6.70052 13.4453 7.50781 13.4453C7.96094 13.4453 8.38021 13.3854 8.76563 13.2656C9.15625 13.1458 9.5026 12.9714 9.80469 12.7422C10.1068 12.5078 10.3568 12.224 10.5547 11.8906C10.7578 11.5573 10.8984 11.1771 10.9766 10.75L14.3984 10.7656C14.3099 11.5 14.0885 12.2083 13.7344 12.8906C13.3854 13.5677 12.9141 14.1745 12.3203 14.7109C11.7318 15.2422 11.0286 15.6641 10.2109 15.9766C9.39844 16.2839 8.47917 16.4375 7.45313 16.4375C6.02604 16.4375 4.75 16.1146 3.625 15.4687C2.50521 14.8229 1.61979 13.888 0.96875 12.6641C0.322917 11.4401 7.45058e-09 9.95833 7.45058e-09 8.21875C7.45058e-09 6.47396 0.328125 4.98958 0.984375 3.76563C1.64063 2.54167 2.53125 1.60937 3.65625 0.96875C4.78125 0.322916 6.04688 -5.96046e-07 7.45313 -5.96046e-07C8.38021 -5.96046e-07 9.23958 0.130208 10.0313 0.390625C10.8281 0.651041 11.5339 1.03125 12.1484 1.53125C12.763 2.02604 13.263 2.63281 13.6484 3.35156C14.0391 4.07031 14.2891 4.89323 14.3984 5.82031ZM19.6498 9.28125V16.2188H16.3217V0.21875H19.5561V6.33594H19.6967C19.9676 5.6276 20.4051 5.07292 21.0092 4.67187C21.6134 4.26562 22.3712 4.0625 23.2827 4.0625C24.116 4.0625 24.8426 4.24479 25.4623 4.60937C26.0873 4.96875 26.5717 5.48698 26.9155 6.16406C27.2644 6.83594 27.4363 7.64062 27.4311 8.57812V16.2188H24.103V9.17188C24.1082 8.43229 23.9207 7.85677 23.5405 7.44531C23.1655 7.03385 22.6394 6.82812 21.9623 6.82812C21.5092 6.82812 21.1082 6.92448 20.7592 7.11719C20.4155 7.3099 20.1446 7.59115 19.9467 7.96094C19.754 8.32552 19.6551 8.76563 19.6498 9.28125ZM33.0321 16.4453C32.2665 16.4453 31.5842 16.3125 30.9852 16.0469C30.3863 15.776 29.9123 15.3776 29.5634 14.8516C29.2196 14.3203 29.0477 13.6589 29.0477 12.8672C29.0477 12.2005 29.1701 11.6406 29.4149 11.1875C29.6597 10.7344 29.993 10.3698 30.4149 10.0937C30.8368 9.81771 31.316 9.60937 31.8524 9.46875C32.3941 9.32812 32.9618 9.22917 33.5555 9.17188C34.2535 9.09896 34.816 9.03125 35.243 8.96875C35.6701 8.90104 35.98 8.80208 36.1727 8.67187C36.3654 8.54167 36.4618 8.34896 36.4618 8.09375V8.04687C36.4618 7.55208 36.3055 7.16927 35.993 6.89844C35.6858 6.6276 35.2483 6.49219 34.6805 6.49219C34.0816 6.49219 33.605 6.625 33.2509 6.89062C32.8967 7.15104 32.6623 7.47917 32.5477 7.875L29.4696 7.625C29.6259 6.89583 29.9332 6.26562 30.3915 5.73438C30.8498 5.19792 31.441 4.78646 32.1649 4.5C32.8941 4.20833 33.7378 4.0625 34.6962 4.0625C35.3628 4.0625 36.0009 4.14062 36.6102 4.29687C37.2248 4.45312 37.7691 4.69531 38.243 5.02344C38.7222 5.35156 39.0998 5.77344 39.3759 6.28906C39.6519 6.79948 39.7899 7.41146 39.7899 8.125V16.2188H36.6337V14.5547H36.5399C36.3472 14.9297 36.0894 15.2604 35.7665 15.5469C35.4436 15.8281 35.0555 16.0495 34.6024 16.2109C34.1493 16.3672 33.6259 16.4453 33.0321 16.4453ZM33.9852 14.1484C34.4748 14.1484 34.9071 14.0521 35.2821 13.8594C35.6571 13.6615 35.9514 13.3958 36.1649 13.0625C36.3785 12.7292 36.4852 12.3516 36.4852 11.9297V10.6563C36.3811 10.724 36.2378 10.7865 36.0555 10.8437C35.8785 10.8958 35.6779 10.9453 35.454 10.9922C35.23 11.0339 35.0061 11.0729 34.7821 11.1094C34.5582 11.1406 34.355 11.1693 34.1727 11.1953C33.7821 11.2526 33.441 11.3437 33.1493 11.4687C32.8576 11.5937 32.6311 11.763 32.4696 11.9766C32.3082 12.1849 32.2274 12.4453 32.2274 12.7578C32.2274 13.2109 32.3915 13.5573 32.7196 13.7969C33.0529 14.0312 33.4748 14.1484 33.9852 14.1484ZM48.3148 4.21875V6.71875H41.0882V4.21875H48.3148ZM42.7288 1.34375H46.057V12.5312C46.057 12.8385 46.1038 13.0781 46.1976 13.25C46.2913 13.4167 46.4215 13.5339 46.5882 13.6016C46.7601 13.6693 46.958 13.7031 47.182 13.7031C47.3382 13.7031 47.4945 13.6901 47.6507 13.6641C47.807 13.6328 47.9267 13.6094 48.0101 13.5937L48.5335 16.0703C48.3668 16.1224 48.1325 16.1823 47.8304 16.25C47.5283 16.3229 47.1611 16.3672 46.7288 16.3828C45.9267 16.4141 45.2236 16.3073 44.6195 16.0625C44.0205 15.8177 43.5543 15.4375 43.221 14.9219C42.8877 14.4062 42.7236 13.7552 42.7288 12.9687V1.34375ZM59.988 0.21875H63.3709V10.6094C63.3709 11.776 63.0922 12.7969 62.5349 13.6719C61.9828 14.5469 61.2094 15.2292 60.2146 15.7187C59.2198 16.2031 58.061 16.4453 56.738 16.4453C55.4099 16.4453 54.2485 16.2031 53.2537 15.7187C52.2589 15.2292 51.4854 14.5469 50.9334 13.6719C50.3813 12.7969 50.1052 11.776 50.1052 10.6094V0.21875H53.488V10.3203C53.488 10.9297 53.6209 11.4714 53.8865 11.9453C54.1573 12.4193 54.5375 12.7917 55.0271 13.0625C55.5167 13.3333 56.087 13.4688 56.738 13.4688C57.3943 13.4688 57.9646 13.3333 58.449 13.0625C58.9386 12.7917 59.3162 12.4193 59.5818 11.9453C59.8526 11.4714 59.988 10.9297 59.988 10.3203V0.21875ZM65.6516 20.7188V4.21875H68.9328V6.23437H69.0813C69.2271 5.91146 69.438 5.58333 69.7141 5.25C69.9953 4.91146 70.3599 4.63021 70.8078 4.40625C71.2609 4.17708 71.8234 4.0625 72.4953 4.0625C73.3703 4.0625 74.1776 4.29167 74.9172 4.75C75.6568 5.20312 76.2479 5.88802 76.6906 6.80469C77.1333 7.71615 77.3547 8.85937 77.3547 10.2344C77.3547 11.5729 77.1385 12.7031 76.7063 13.625C76.2792 14.5417 75.6958 15.237 74.9563 15.7109C74.2219 16.1797 73.399 16.4141 72.4875 16.4141C71.8417 16.4141 71.2922 16.3073 70.8391 16.0937C70.3911 15.8802 70.024 15.612 69.7375 15.2891C69.451 14.9609 69.2323 14.6302 69.0813 14.2969H68.9797V20.7188H65.6516ZM68.9094 10.2187C68.9094 10.9323 69.0083 11.5547 69.2063 12.0859C69.4042 12.6172 69.6906 13.0312 70.0656 13.3281C70.4406 13.6198 70.8964 13.7656 71.4328 13.7656C71.9745 13.7656 72.4328 13.6172 72.8078 13.3203C73.1828 13.0182 73.4667 12.6016 73.6594 12.0703C73.8573 11.5339 73.9563 10.9167 73.9563 10.2187C73.9563 9.52604 73.8599 8.91667 73.6672 8.39062C73.4745 7.86458 73.1906 7.45312 72.8156 7.15625C72.4406 6.85937 71.9797 6.71094 71.4328 6.71094C70.8911 6.71094 70.4328 6.85417 70.0578 7.14062C69.688 7.42708 69.4042 7.83333 69.2063 8.35937C69.0083 8.88542 68.9094 9.50521 68.9094 10.2187Z" fill="#061F35"/>
<path d="M81.0788 16.4219C80.5631 16.4219 80.1204 16.2396 79.7506 15.875C79.386 15.5052 79.2038 15.0625 79.2038 14.5469C79.2038 14.0365 79.386 13.599 79.7506 13.2344C80.1204 12.8698 80.5631 12.6875 81.0788 12.6875C81.5788 12.6875 82.0163 12.8698 82.3913 13.2344C82.7663 13.599 82.9538 14.0365 82.9538 14.5469C82.9538 14.8906 82.8652 15.2057 82.6881 15.4922C82.5163 15.7734 82.2897 16 82.0084 16.1719C81.7272 16.3385 81.4173 16.4219 81.0788 16.4219Z" fill="#188BEF"/>
</svg>
