<svg width="131" height="128" viewBox="0 0 131 128" fill="none" xmlns="http://www.w3.org/2000/svg">
<rect x="11" y="4" width="112" height="112" rx="56" fill="#CFE5FF" fill-opacity="0.5"/>
<rect x="11.5" y="4.5" width="111" height="111" rx="55.5" stroke="#49AAFF" stroke-opacity="0.2"/>
<g filter="url(#filter0_i_4018_392)">
<rect x="24" y="17" width="86" height="86" rx="43" fill="#D0E4FF"/>
<rect x="35" y="28" width="64" height="64" rx="32" fill="#49AAFF"/>
<g filter="url(#filter1_d_4018_392)">
<rect x="35" y="28" width="64" height="64" rx="32" fill="white" fill-opacity="0.01" shape-rendering="crispEdges"/>
</g>
<path d="M63.5291 69.6688L54.3208 60.4605L57.5083 57.273L63.5291 63.2938L76.4916 50.3313L79.6791 53.5188L63.5291 69.6688V69.6688" fill="white"/>
</g>
<rect x="98" y="1" width="28" height="28" rx="14" fill="white"/>
<rect x="98.5" y="1.5" width="27" height="27" rx="13.5" stroke="#BFC7D3" stroke-opacity="0.3"/>
<g filter="url(#filter2_dd_4018_392)">
<rect x="98" y="1" width="28" height="28" rx="14" fill="white" fill-opacity="0.01" shape-rendering="crispEdges"/>
</g>
<path d="M116.667 13L115.833 11.1666L114 10.3333L115.833 9.49996L116.667 7.66663L117.5 9.49996L119.333 10.3333L117.5 11.1666L116.667 13V13M116.667 22.3333L115.833 20.5L114 19.6666L115.833 18.8333L116.667 17L117.5 18.8333L119.333 19.6666L117.5 20.5L116.667 22.3333V22.3333M110 20.3333L108.333 16.6666L104.667 15L108.333 13.3333L110 9.66663L111.667 13.3333L115.333 15L111.667 16.6666L110 20.3333V20.3333" fill="#49AAFF"/>
<rect x="8" y="95" width="24" height="24" rx="12" fill="white"/>
<rect x="8.5" y="95.5" width="23" height="23" rx="11.5" stroke="#BFC7D3" stroke-opacity="0.3"/>
<g filter="url(#filter3_dd_4018_392)">
<rect x="8" y="95" width="24" height="24" rx="12" fill="white" fill-opacity="0.01" shape-rendering="crispEdges"/>
</g>
<path d="M18.0166 113.125L16.9083 111.258L14.8083 110.792L15.0124 108.633L13.5833 107L15.0124 105.367L14.8083 103.208L16.9083 102.742L18.0166 100.875L19.9999 101.721L21.9833 100.875L23.0916 102.742L25.1916 103.208L24.9874 105.367L26.4166 107L24.9874 108.633L25.1916 110.792L23.0916 111.258L21.9833 113.125L19.9999 112.279L18.0166 113.125V113.125M19.3874 109.071L22.6833 105.775L21.8666 104.929L19.3874 107.408L18.1333 106.183L17.3166 107L19.3874 109.071V109.071" fill="#49AAFF"/>
<rect y="60" width="10" height="10" rx="5" fill="#49AAFF"/>
<defs>
<filter id="filter0_i_4018_392" x="24" y="17" width="86" height="88" filterUnits="userSpaceOnUse" color-interpolation-filters="sRGB">
<feFlood flood-opacity="0" result="BackgroundImageFix"/>
<feBlend mode="normal" in="SourceGraphic" in2="BackgroundImageFix" result="shape"/>
<feColorMatrix in="SourceAlpha" type="matrix" values="0 0 0 0 0 0 0 0 0 0 0 0 0 0 0 0 0 0 127 0" result="hardAlpha"/>
<feOffset dy="2"/>
<feGaussianBlur stdDeviation="2"/>
<feComposite in2="hardAlpha" operator="arithmetic" k2="-1" k3="1"/>
<feColorMatrix type="matrix" values="0 0 0 0 0 0 0 0 0 0 0 0 0 0 0 0 0 0 0.05 0"/>
<feBlend mode="normal" in2="shape" result="effect1_innerShadow_4018_392"/>
</filter>
<filter id="filter1_d_4018_392" x="17" y="18" width="100" height="100" filterUnits="userSpaceOnUse" color-interpolation-filters="sRGB">
<feFlood flood-opacity="0" result="BackgroundImageFix"/>
<feColorMatrix in="SourceAlpha" type="matrix" values="0 0 0 0 0 0 0 0 0 0 0 0 0 0 0 0 0 0 127 0" result="hardAlpha"/>
<feMorphology radius="2" operator="erode" in="SourceAlpha" result="effect1_dropShadow_4018_392"/>
<feOffset dy="8"/>
<feGaussianBlur stdDeviation="10"/>
<feComposite in2="hardAlpha" operator="out"/>
<feColorMatrix type="matrix" values="0 0 0 0 0.286275 0 0 0 0 0.666667 0 0 0 0 1 0 0 0 0.38 0"/>
<feBlend mode="normal" in2="BackgroundImageFix" result="effect1_dropShadow_4018_392"/>
<feBlend mode="normal" in="SourceGraphic" in2="effect1_dropShadow_4018_392" result="shape"/>
</filter>
<filter id="filter2_dd_4018_392" x="93" y="0" width="38" height="38" filterUnits="userSpaceOnUse" color-interpolation-filters="sRGB">
<feFlood flood-opacity="0" result="BackgroundImageFix"/>
<feColorMatrix in="SourceAlpha" type="matrix" values="0 0 0 0 0 0 0 0 0 0 0 0 0 0 0 0 0 0 127 0" result="hardAlpha"/>
<feMorphology radius="2" operator="erode" in="SourceAlpha" result="effect1_dropShadow_4018_392"/>
<feOffset dy="2"/>
<feGaussianBlur stdDeviation="2"/>
<feComposite in2="hardAlpha" operator="out"/>
<feColorMatrix type="matrix" values="0 0 0 0 0 0 0 0 0 0 0 0 0 0 0 0 0 0 0.1 0"/>
<feBlend mode="normal" in2="BackgroundImageFix" result="effect1_dropShadow_4018_392"/>
<feColorMatrix in="SourceAlpha" type="matrix" values="0 0 0 0 0 0 0 0 0 0 0 0 0 0 0 0 0 0 127 0" result="hardAlpha"/>
<feMorphology radius="1" operator="erode" in="SourceAlpha" result="effect2_dropShadow_4018_392"/>
<feOffset dy="4"/>
<feGaussianBlur stdDeviation="3"/>
<feComposite in2="hardAlpha" operator="out"/>
<feColorMatrix type="matrix" values="0 0 0 0 0 0 0 0 0 0 0 0 0 0 0 0 0 0 0.1 0"/>
<feBlend mode="normal" in2="effect1_dropShadow_4018_392" result="effect2_dropShadow_4018_392"/>
<feBlend mode="normal" in="SourceGraphic" in2="effect2_dropShadow_4018_392" result="shape"/>
</filter>
<filter id="filter3_dd_4018_392" x="3" y="94" width="34" height="34" filterUnits="userSpaceOnUse" color-interpolation-filters="sRGB">
<feFlood flood-opacity="0" result="BackgroundImageFix"/>
<feColorMatrix in="SourceAlpha" type="matrix" values="0 0 0 0 0 0 0 0 0 0 0 0 0 0 0 0 0 0 127 0" result="hardAlpha"/>
<feMorphology radius="2" operator="erode" in="SourceAlpha" result="effect1_dropShadow_4018_392"/>
<feOffset dy="2"/>
<feGaussianBlur stdDeviation="2"/>
<feComposite in2="hardAlpha" operator="out"/>
<feColorMatrix type="matrix" values="0 0 0 0 0 0 0 0 0 0 0 0 0 0 0 0 0 0 0.1 0"/>
<feBlend mode="normal" in2="BackgroundImageFix" result="effect1_dropShadow_4018_392"/>
<feColorMatrix in="SourceAlpha" type="matrix" values="0 0 0 0 0 0 0 0 0 0 0 0 0 0 0 0 0 0 127 0" result="hardAlpha"/>
<feMorphology radius="1" operator="erode" in="SourceAlpha" result="effect2_dropShadow_4018_392"/>
<feOffset dy="4"/>
<feGaussianBlur stdDeviation="3"/>
<feComposite in2="hardAlpha" operator="out"/>
<feColorMatrix type="matrix" values="0 0 0 0 0 0 0 0 0 0 0 0 0 0 0 0 0 0 0.1 0"/>
<feBlend mode="normal" in2="effect1_dropShadow_4018_392" result="effect2_dropShadow_4018_392"/>
<feBlend mode="normal" in="SourceGraphic" in2="effect2_dropShadow_4018_392" result="shape"/>
</filter>
</defs>
</svg>
