<svg width="14" height="16" viewBox="0 0 14 16" fill="none" xmlns="http://www.w3.org/2000/svg">
<path d="M12.3713 13.3167C11.6797 14.35 10.9463 15.3583 9.82966 15.375C8.71299 15.4 8.35466 14.7167 7.08799 14.7167C5.81299 14.7167 5.42132 15.3583 4.36299 15.4C3.27132 15.4417 2.44632 14.3 1.74632 13.2917C0.321325 11.2333 -0.770342 7.44167 0.696325 4.89167C1.42132 3.625 2.72132 2.825 4.12966 2.8C5.19632 2.78333 6.21299 3.525 6.87133 3.525C7.52133 3.525 8.75466 2.63333 10.0463 2.76667C10.588 2.79167 12.1047 2.98333 13.0797 4.41667C13.0047 4.46667 11.2713 5.48333 11.288 7.59167C11.313 10.1083 13.4963 10.95 13.5213 10.9583C13.4963 11.0167 13.1713 12.1583 12.3713 13.3167ZM10.088 2.375C10.6047 1.75 10.9547 0.875 10.8547 0C10.1047 0.0333333 9.19633 0.5 8.65466 1.125C8.17132 1.68333 7.74632 2.575 7.86299 3.43333C8.70466 3.5 9.57133 3 10.088 2.375Z" fill="#1A1C1F"/>
</svg>
